
<svg width="927" height="1075" viewBox="0 0 927 1075" fill="none" xmlns="http://www.w3.org/2000/svg">
<path d="M158.548 -253.581C316.017 105.537 98.2316 548.282 -328.129 735.236C-754.49 922.19 -1227.69 782.435 -1385.16 423.317C-1542.63 64.1986 -1324.85 -378.547 -898.486 -565.5C-472.125 -752.454 1.07966 -612.699 158.548 -253.581Z" stroke="white" stroke-opacity="0.05"/>
<path d="M177.832 -262.037C335.301 97.0812 117.515 539.827 -308.845 726.78C-735.206 913.734 -1208.41 773.979 -1365.88 414.861C-1523.35 55.7429 -1305.56 -387.002 -879.202 -573.956C-452.841 -760.91 20.3634 -621.155 177.832 -262.037Z" stroke="white" stroke-opacity="0.05"/>
<path d="M197.116 -270.493C354.585 88.6255 136.799 531.371 -289.562 718.325C-715.922 905.278 -1189.13 765.523 -1346.6 406.405C-1504.06 47.2872 -1286.28 -395.458 -859.918 -582.412C-433.557 -769.366 39.647 -629.611 197.116 -270.493Z" stroke="white" stroke-opacity="0.05"/>
<path d="M216.4 -278.948C373.868 80.1699 156.083 522.915 -270.278 709.869C-696.639 896.823 -1169.84 757.068 -1327.31 397.95C-1484.78 38.8316 -1266.99 -403.914 -840.634 -590.867C-414.273 -777.821 58.931 -638.066 216.4 -278.948Z" stroke="white" stroke-opacity="0.05"/>
<path d="M235.683 -287.404C393.152 71.7142 175.367 514.46 -250.994 701.413C-677.355 888.367 -1150.56 748.612 -1308.03 389.494C-1465.5 30.3759 -1247.71 -412.369 -821.351 -599.323C-394.99 -786.277 78.2147 -646.522 235.683 -287.404Z" stroke="white" stroke-opacity="0.05"/>
<path d="M254.967 -295.86C412.436 63.2585 194.65 506.004 -231.71 692.958C-658.071 879.911 -1131.28 740.156 -1288.74 381.038C-1446.21 21.9202 -1228.43 -420.825 -802.067 -607.779C-375.706 -794.733 97.4984 -654.978 254.967 -295.86Z" stroke="white" stroke-opacity="0.05"/>
<path d="M274.251 -304.315C431.72 54.8028 213.934 497.548 -212.427 684.502C-638.787 871.456 -1111.99 731.701 -1269.46 372.583C-1426.93 13.4645 -1209.14 -429.281 -782.783 -616.235C-356.422 -803.188 116.782 -663.433 274.251 -304.315Z" stroke="white" stroke-opacity="0.05"/>
<path d="M293.534 -312.771C451.003 46.3472 233.218 489.093 -193.143 676.046C-619.504 863 -1092.71 723.245 -1250.18 364.127C-1407.65 5.00887 -1189.86 -437.736 -763.499 -624.69C-337.139 -811.644 136.066 -671.889 293.534 -312.771Z" stroke="white" stroke-opacity="0.05"/>
<path d="M312.818 -321.227C470.287 37.8915 252.501 480.637 -173.859 667.591C-600.22 854.544 -1073.42 714.789 -1230.89 355.671C-1388.36 -3.44682 -1170.58 -446.192 -744.216 -633.146C-317.855 -820.1 155.349 -680.345 312.818 -321.227Z" stroke="white" stroke-opacity="0.05"/>
<path d="M332.102 -329.682C489.571 29.4358 271.785 472.181 -154.575 659.135C-580.936 846.089 -1054.14 706.334 -1211.61 347.216C-1369.08 -11.9025 -1151.29 -454.648 -724.932 -641.602C-298.571 -828.555 174.633 -688.8 332.102 -329.682Z" stroke="white" stroke-opacity="0.05"/>
<path d="M351.386 -338.138C508.855 20.9801 291.069 463.725 -135.292 650.679C-561.652 837.633 -1034.86 697.878 -1192.33 338.76C-1349.79 -20.3582 -1132.01 -463.103 -705.648 -650.057C-279.287 -837.011 193.917 -697.256 351.386 -338.138Z" stroke="white" stroke-opacity="0.05"/>
<path d="M370.67 -346.594C528.138 12.5245 310.353 455.27 -116.008 642.224C-542.369 829.177 -1015.57 689.422 -1173.04 330.304C-1330.51 -28.8138 -1112.73 -471.559 -686.364 -658.513C-260.004 -845.467 213.201 -705.712 370.67 -346.594Z" stroke="white" stroke-opacity="0.05"/>
<path d="M389.953 -355.049C547.422 4.06882 329.636 446.814 -96.7243 633.768C-523.085 820.722 -996.29 680.967 -1153.76 321.849C-1311.23 -37.2695 -1093.44 -480.015 -667.081 -666.969C-240.72 -853.922 232.484 -714.167 389.953 -355.049Z" stroke="white" stroke-opacity="0.05"/>
<path d="M409.237 -363.505C566.706 -4.38687 348.92 438.358 -77.4406 625.312C-503.801 812.266 -977.006 672.511 -1134.47 313.393C-1291.94 -45.7252 -1074.16 -488.47 -647.797 -675.424C-221.436 -862.378 251.768 -722.623 409.237 -363.505Z" stroke="white" stroke-opacity="0.05"/>
<path d="M428.521 -371.961C585.99 -12.8426 368.204 429.903 -58.1567 616.857C-484.517 803.81 -957.722 664.055 -1115.19 304.937C-1272.66 -54.1809 -1054.87 -496.926 -628.513 -683.88C-202.152 -870.834 271.052 -731.079 428.521 -371.961Z" stroke="white" stroke-opacity="0.05"/>
<path d="M447.805 -380.416C605.273 -21.2982 387.488 421.447 -38.873 608.401C-465.234 795.355 -938.438 655.6 -1095.91 296.482C-1253.38 -62.6365 -1035.59 -505.382 -609.229 -692.336C-182.869 -879.289 290.336 -739.534 447.805 -380.416Z" stroke="white" stroke-opacity="0.05"/>
<path d="M467.088 -388.872C624.557 -29.7539 406.771 412.991 -19.5893 599.945C-445.95 786.899 -919.155 647.144 -1076.62 288.026C-1234.09 -71.0922 -1016.31 -513.837 -589.946 -700.791C-163.585 -887.745 309.619 -747.99 467.088 -388.872Z" stroke="white" stroke-opacity="0.05"/>
<path d="M486.372 -397.328C643.841 -38.2096 426.055 404.536 -0.305627 591.49C-426.666 778.443 -899.871 638.688 -1057.34 279.57C-1214.81 -79.5479 -997.023 -522.293 -570.662 -709.247C-144.301 -896.201 328.903 -756.446 486.372 -397.328Z" stroke="white" stroke-opacity="0.05"/>
<path d="M505.656 -405.783C663.124 -46.6652 445.339 396.08 18.9781 583.034C-407.383 769.988 -880.587 630.233 -1038.06 271.115C-1195.52 -88.0036 -977.739 -530.749 -551.378 -717.703C-125.018 -904.656 348.187 -764.901 505.656 -405.783Z" stroke="white" stroke-opacity="0.05"/>
<path d="M524.939 -414.239C682.408 -55.1209 464.623 387.624 38.2618 574.578C-388.099 761.532 -861.303 621.777 -1018.77 262.659C-1176.24 -96.4592 -958.455 -539.204 -532.095 -726.158C-105.734 -913.112 367.471 -773.357 524.939 -414.239Z" stroke="white" stroke-opacity="0.05"/>
<path d="M544.223 -422.695C701.692 -63.5766 483.906 379.169 57.5457 566.123C-368.815 753.076 -842.02 613.321 -999.488 254.203C-1156.96 -104.915 -939.171 -547.66 -512.811 -734.614C-86.45 -921.568 386.754 -781.813 544.223 -422.695Z" stroke="white" stroke-opacity="0.05"/>
<path d="M563.507 -431.15C720.976 -72.0323 503.19 370.713 76.8294 557.667C-349.531 744.621 -822.736 604.866 -980.205 245.748C-1137.67 -113.371 -919.888 -556.116 -493.527 -743.07C-67.1663 -930.023 406.038 -790.268 563.507 -431.15Z" stroke="white" stroke-opacity="0.05"/>
<path d="M582.791 -439.606C740.259 -80.4879 522.474 362.257 96.1131 549.211C-330.248 736.165 -803.452 596.41 -960.921 237.292C-1118.39 -121.826 -900.604 -564.572 -474.243 -751.525C-47.8826 -938.479 425.322 -798.724 582.791 -439.606Z" stroke="white" stroke-opacity="0.05"/>
<path d="M602.074 -448.062C759.543 -88.9436 541.758 353.802 115.397 540.756C-310.964 727.709 -784.168 587.954 -941.637 228.836C-1099.11 -130.282 -881.32 -573.027 -454.96 -759.981C-28.5989 -946.935 444.606 -807.18 602.074 -448.062Z" stroke="white" stroke-opacity="0.05"/>
<path d="M621.358 -456.517C778.827 -97.3993 561.041 345.346 134.68 532.3C-291.68 719.254 -764.885 579.499 -922.354 220.381C-1079.82 -138.738 -862.037 -581.483 -435.676 -768.437C-9.31523 -955.39 463.889 -815.635 621.358 -456.517Z" stroke="white" stroke-opacity="0.05"/>
<path d="M640.642 -464.973C798.111 -105.855 580.325 336.89 153.964 523.844C-272.396 710.798 -745.601 571.043 -903.07 211.925C-1060.54 -147.193 -842.753 -589.939 -416.392 -776.892C9.96871 -963.846 483.173 -824.091 640.642 -464.973Z" stroke="white" stroke-opacity="0.05"/>
</svg>
