
<svg width="12" height="139" viewBox="0 0 12 139" fill="none" xmlns="http://www.w3.org/2000/svg">
<line x1="6.5" y1="12" x2="6.50001" y2="132" stroke="white" stroke-opacity="0.5"/>
<circle cx="6.5" cy="135.5" r="3.5" fill="white" fill-opacity="0.75"/>
<path d="M3.33452 10.1385C2.74976 10.1385 2.24787 9.99053 1.82884 9.6946C1.41217 9.39631 1.09138 8.96662 0.866477 8.40554C0.643939 7.84209 0.53267 7.16383 0.53267 6.37074C0.535038 5.57765 0.647491 4.90294 0.870028 4.34659C1.09493 3.78788 1.41572 3.36174 1.83239 3.06818C2.25142 2.77462 2.75213 2.62784 3.33452 2.62784C3.9169 2.62784 4.41761 2.77462 4.83665 3.06818C5.25568 3.36174 5.57647 3.78788 5.79901 4.34659C6.02391 4.9053 6.13636 5.58002 6.13636 6.37074C6.13636 7.16619 6.02391 7.84564 5.79901 8.40909C5.57647 8.97017 5.25568 9.39867 4.83665 9.6946C4.41998 9.99053 3.91927 10.1385 3.33452 10.1385ZM3.33452 9.02699C3.78906 9.02699 4.14773 8.80327 4.41051 8.35582C4.67566 7.90601 4.80824 7.24432 4.80824 6.37074C4.80824 5.79309 4.74787 5.30777 4.62713 4.91477C4.50639 4.52178 4.33594 4.22585 4.11577 4.02699C3.8956 3.82576 3.63518 3.72514 3.33452 3.72514C2.88234 3.72514 2.52486 3.95005 2.26207 4.39986C1.99929 4.8473 1.86671 5.50426 1.86435 6.37074C1.86198 6.95076 1.91998 7.43845 2.03835 7.83381C2.15909 8.22917 2.32955 8.52746 2.54972 8.72869C2.76989 8.92756 3.03149 9.02699 3.33452 9.02699ZM10.2743 2.72727V10H8.95685V4.00923H8.91424L7.21325 5.09588V3.88849L9.02077 2.72727H10.2743Z" fill="white" fill-opacity="0.75"/>
</svg>
