
<svg width="63" height="126" viewBox="0 0 63 126" fill="none" xmlns="http://www.w3.org/2000/svg">
<path d="M42.3183 4.77697C43.3644 5.81356 45.0529 5.80578 46.0895 4.75959C47.126 3.71341 47.1183 2.02498 46.0721 0.988394C45.0259 -0.0481947 43.3375 -0.0404141 42.3009 1.00577C41.2643 2.05196 41.2721 3.74038 42.3183 4.77697ZM47.8738 54.7402L47.6147 55.1678L47.8738 54.7402ZM43.9115 2.47091C37.2578 7.05386 32.6171 16.8497 32.4007 27.1435C32.1836 37.468 36.4138 48.3809 47.6147 55.1678L48.1329 54.3126C37.2874 47.7411 33.1896 37.1944 33.4005 27.1645C33.612 17.1037 38.1552 7.65 44.4788 3.29446L43.9115 2.47091ZM17.5233 43.9508C13.5103 51.5032 15.3955 61.1487 20.4002 74.7532L21.3387 74.4079C16.32 60.7655 14.6269 51.5329 18.4064 44.42L17.5233 43.9508ZM24.041 74.4537C13.9346 77.16 4.49192 82.1359 1.27968 90.477C-1.94922 98.8614 1.21559 110.348 15.5837 125.802L16.3161 125.122C2.00737 109.731 -0.797641 98.6537 2.21287 90.8364C5.24003 82.9759 14.2459 78.1118 24.2996 75.4196L24.041 74.4537ZM48.5118 90.2367C49.8276 87.6053 49.606 85.0724 48.3575 82.8371C47.1224 80.626 44.8966 78.7247 42.2207 77.2534C36.8778 74.3158 29.5347 72.9825 24.041 74.4537L24.2996 75.4196C29.4915 74.0293 36.5692 75.2873 41.7389 78.1297C44.3193 79.5485 46.3727 81.3344 47.4844 83.3248C48.5826 85.291 48.7753 87.4738 47.6174 89.7895L48.5118 90.2367ZM20.4002 74.7532C22.7608 81.1701 28.117 88.1245 33.6672 91.9679C36.4394 93.8876 39.3236 95.0753 41.949 94.9627C44.6242 94.8481 46.9362 93.3878 48.5118 90.2367L47.6174 89.7895C46.1804 92.6632 44.168 93.8667 41.9061 93.9637C39.5943 94.0628 36.9285 93.0099 34.2365 91.1457C28.8582 87.4214 23.6294 80.6347 21.3387 74.4079L20.4002 74.7532ZM56.5367 58.1043C57.9989 58.0895 59.1939 57.9425 60.1381 57.6733C61.0798 57.4048 61.8054 57.0048 62.2848 56.4592C63.2949 55.3094 63.0213 53.7872 62.1378 52.3021C61.244 50.7997 59.6336 49.1491 57.5711 47.5172C55.5012 45.8795 52.9467 44.2377 50.1322 42.7603C44.5108 39.8097 37.8016 37.4889 31.7902 37.1949C25.7753 36.9007 20.3449 38.6406 17.5233 43.9508L18.4064 44.42C20.9724 39.5908 25.9269 37.9093 31.7413 38.1937C37.5592 38.4782 44.1237 40.7359 49.6674 43.6458C52.4355 45.0987 54.9363 46.7077 56.9506 48.3014C58.9723 49.901 60.4747 51.4626 61.2784 52.8134C62.0923 54.1815 62.1008 55.1535 61.5335 55.7992C61.2242 56.1512 60.6962 56.4743 59.8639 56.7116C59.034 56.9483 57.9347 57.0901 56.5265 57.1043L56.5367 58.1043ZM47.6147 55.1678C50.6215 56.9898 52.9069 58.1411 56.5367 58.1043L56.5265 57.1043C53.1806 57.1382 51.0924 56.1058 48.1329 54.3126L47.6147 55.1678Z" fill="white" fill-opacity="0.75"/>
</svg>
