
<svg width="48" height="48" viewBox="0 0 48 48" fill="none" xmlns="http://www.w3.org/2000/svg">
<path d="M28.8045 0.662007C29.3217 -0.125467 30.5414 0.173752 30.6354 1.11117L32.3777 18.4839C32.4078 18.784 32.5717 19.0544 32.8238 19.22L47.4178 28.8045C48.2052 29.3217 47.906 30.5414 46.9686 30.6354L29.5959 32.3777C29.2958 32.4078 29.0253 32.5717 28.8598 32.8238L19.2752 47.4178C18.7581 48.2052 17.5384 47.906 17.4444 46.9686L15.7021 29.5959C15.672 29.2958 15.5081 29.0253 15.256 28.8598L0.662009 19.2752C-0.125465 18.7581 0.173754 17.5384 1.11117 17.4444L18.4839 15.702C18.784 15.672 19.0544 15.5081 19.22 15.256L28.8045 0.662007Z" fill="#BAFC00" fill-opacity="0.75"/>
</svg>
