
<svg width="25" height="25" viewBox="0 0 25 25" fill="none" xmlns="http://www.w3.org/2000/svg">
<path d="M14.4558 0.998721C14.9896 0.222401 16.2027 0.547439 16.2768 1.48664L16.8917 9.28087C16.9154 9.58151 17.0735 9.85538 17.322 10.0262L23.7646 14.4559C24.5409 14.9897 24.2159 16.2027 23.2767 16.2768L15.4824 16.8917C15.1818 16.9154 14.9079 17.0736 14.7371 17.3221L10.3074 23.7646C9.77363 24.5409 8.56058 24.2159 8.48648 23.2767L7.87156 15.4825C7.84784 15.1818 7.68972 14.908 7.44122 14.7371L0.998676 10.3074C0.222356 9.77368 0.547394 8.56062 1.48659 8.48653L9.28083 7.87161C9.58146 7.84789 9.85534 7.68977 10.0262 7.44127L14.4558 0.998721Z" fill="white"/>
</svg>
