
<svg width="32" height="33" viewBox="0 0 32 33" fill="none" xmlns="http://www.w3.org/2000/svg">
<path d="M9.01484 1.62868C8.98122 0.687165 10.1492 0.225747 10.7681 0.936045L18.3221 9.60528C18.5202 9.83265 18.8103 9.95846 19.1117 9.9477L30.603 9.53731C31.5445 9.50369 32.0059 10.6717 31.2956 11.2906L22.6264 18.8445C22.399 19.0427 22.2732 19.3328 22.2839 19.6342L22.6943 31.1254C22.728 32.067 21.5599 32.5284 20.941 31.8181L13.3871 23.1488C13.189 22.9215 12.8988 22.7957 12.5975 22.8064L1.10621 23.2168C0.164693 23.2504 -0.296726 22.0824 0.413572 21.4635L9.08281 13.9096C9.31017 13.7115 9.43599 13.4213 9.42523 13.1199L9.01484 1.62868Z" fill="white"/>
</svg>
